<mxfile host="app.diagrams.net" modified="2023-08-25T13:49:45.434Z" agent="Mozilla/5.0 (Windows NT 10.0; Win64; x64) AppleWebKit/537.36 (KHTML, like Gecko) Chrome/115.0.0.0 Safari/537.36" etag="tOfu_BioEwZdA8xzHK1X" version="21.6.9" type="device">
  <diagram name="Страница — 1" id="3jYrE778VPIsXtVfD_sI">
    <mxGraphModel dx="880" dy="438" grid="1" gridSize="10" guides="1" tooltips="1" connect="1" arrows="1" fold="1" page="1" pageScale="1" pageWidth="827" pageHeight="1169" math="0" shadow="0">
      <root>
        <mxCell id="0" />
        <mxCell id="1" parent="0" />
        <mxCell id="ff9S3n3taPv78_dv2JjZ-6" value="OneToMany&lt;br&gt;user_id" style="edgeStyle=orthogonalEdgeStyle;rounded=0;orthogonalLoop=1;jettySize=auto;html=1;exitX=1;exitY=0.5;exitDx=0;exitDy=0;entryX=0;entryY=0.5;entryDx=0;entryDy=0;" edge="1" parent="1" source="ff9S3n3taPv78_dv2JjZ-3" target="ff9S3n3taPv78_dv2JjZ-4">
          <mxGeometry relative="1" as="geometry">
            <mxPoint as="offset" />
          </mxGeometry>
        </mxCell>
        <mxCell id="ff9S3n3taPv78_dv2JjZ-16" value="OneToMany&lt;br&gt;user_id" style="edgeStyle=orthogonalEdgeStyle;rounded=0;orthogonalLoop=1;jettySize=auto;html=1;exitX=0.5;exitY=1;exitDx=0;exitDy=0;entryX=0;entryY=0.592;entryDx=0;entryDy=0;entryPerimeter=0;" edge="1" parent="1" source="ff9S3n3taPv78_dv2JjZ-3" target="ff9S3n3taPv78_dv2JjZ-5">
          <mxGeometry relative="1" as="geometry" />
        </mxCell>
        <mxCell id="ff9S3n3taPv78_dv2JjZ-3" value="&lt;b&gt;USERS&lt;br&gt;&lt;br&gt;&lt;div style=&quot;text-align: left;&quot;&gt;django Model&lt;/div&gt;&lt;div style=&quot;text-align: left;&quot;&gt;user_id (PK)&lt;/div&gt;&lt;/b&gt;" style="whiteSpace=wrap;html=1;aspect=fixed;align=center;strokeColor=default;verticalAlign=top;" vertex="1" parent="1">
          <mxGeometry x="100" y="90" width="140" height="140" as="geometry" />
        </mxCell>
        <mxCell id="ff9S3n3taPv78_dv2JjZ-11" value="content(FileField)" style="edgeStyle=orthogonalEdgeStyle;rounded=0;orthogonalLoop=1;jettySize=auto;html=1;exitX=1;exitY=0.75;exitDx=0;exitDy=0;entryX=0.083;entryY=0.75;entryDx=0;entryDy=0;entryPerimeter=0;" edge="1" parent="1" source="ff9S3n3taPv78_dv2JjZ-4" target="ff9S3n3taPv78_dv2JjZ-10">
          <mxGeometry relative="1" as="geometry" />
        </mxCell>
        <mxCell id="ff9S3n3taPv78_dv2JjZ-14" style="edgeStyle=orthogonalEdgeStyle;rounded=0;orthogonalLoop=1;jettySize=auto;html=1;exitX=0.5;exitY=1;exitDx=0;exitDy=0;entryX=1;entryY=0.554;entryDx=0;entryDy=0;entryPerimeter=0;" edge="1" parent="1" source="ff9S3n3taPv78_dv2JjZ-4" target="ff9S3n3taPv78_dv2JjZ-5">
          <mxGeometry relative="1" as="geometry" />
        </mxCell>
        <mxCell id="ff9S3n3taPv78_dv2JjZ-15" value="OneToMany&lt;br&gt;post_id" style="edgeLabel;html=1;align=center;verticalAlign=middle;resizable=0;points=[];" vertex="1" connectable="0" parent="ff9S3n3taPv78_dv2JjZ-14">
          <mxGeometry x="0.1787" y="-1" relative="1" as="geometry">
            <mxPoint as="offset" />
          </mxGeometry>
        </mxCell>
        <mxCell id="ff9S3n3taPv78_dv2JjZ-4" value="&lt;b&gt;POSTS&lt;br&gt;&lt;br&gt;post_id(PK)&lt;br&gt;&lt;/b&gt;&lt;b style=&quot;border-color: var(--border-color);&quot;&gt;user_id(FK)&lt;/b&gt;&lt;b&gt;&lt;br&gt;heading&lt;br&gt;category&lt;br&gt;content&amp;nbsp;&lt;br&gt;text&lt;br&gt;&lt;br&gt;&lt;/b&gt;" style="whiteSpace=wrap;html=1;aspect=fixed;verticalAlign=top;" vertex="1" parent="1">
          <mxGeometry x="430" y="90" width="140" height="140" as="geometry" />
        </mxCell>
        <mxCell id="ff9S3n3taPv78_dv2JjZ-5" value="&lt;b&gt;RESPONSES&lt;br&gt;&lt;br&gt;resp_id(PK)&lt;br&gt;text&lt;br&gt;user_id(FK)&lt;br&gt;post_id(FK)&lt;br&gt;&lt;br&gt;&lt;br&gt;&lt;/b&gt;" style="whiteSpace=wrap;html=1;aspect=fixed;align=center;verticalAlign=top;" vertex="1" parent="1">
          <mxGeometry x="270" y="260" width="140" height="140" as="geometry" />
        </mxCell>
        <mxCell id="ff9S3n3taPv78_dv2JjZ-10" value="&lt;b&gt;Hard disk&lt;br&gt;&lt;/b&gt;" style="shape=cylinder3;whiteSpace=wrap;html=1;boundedLbl=1;backgroundOutline=1;size=15;" vertex="1" parent="1">
          <mxGeometry x="690" y="160" width="120" height="120" as="geometry" />
        </mxCell>
      </root>
    </mxGraphModel>
  </diagram>
</mxfile>
